<mxfile host="app.diagrams.net" modified="2024-05-27T23:40:56.205Z" agent="Mozilla/5.0 (Windows NT 10.0; Win64; x64) AppleWebKit/537.36 (KHTML, like Gecko) Chrome/124.0.0.0 Safari/537.36" etag="4jtMLUwYjv3VtF9mClAT" version="24.4.9" type="device">
  <diagram name="Página-1" id="srSfZ5vDwNcdO3Q_fWqT">
    <mxGraphModel dx="4156" dy="2092" grid="0" gridSize="10" guides="1" tooltips="1" connect="1" arrows="1" fold="1" page="1" pageScale="1" pageWidth="980" pageHeight="1390" math="0" shadow="0">
      <root>
        <mxCell id="0" />
        <mxCell id="1" parent="0" />
        <mxCell id="yDCDBSICSVUORIP6rhff-2" value="" style="shape=umlLifeline;perimeter=lifelinePerimeter;whiteSpace=wrap;html=1;container=1;dropTarget=0;collapsible=0;recursiveResize=0;outlineConnect=0;portConstraint=eastwest;newEdgeStyle={&quot;curved&quot;:0,&quot;rounded&quot;:0};participant=umlActor;size=74;" parent="1" vertex="1">
          <mxGeometry x="85" y="111" width="40" height="621" as="geometry" />
        </mxCell>
        <mxCell id="yDCDBSICSVUORIP6rhff-11" value="" style="html=1;points=[[0,0,0,0,5],[0,1,0,0,-5],[1,0,0,0,5],[1,1,0,0,-5]];perimeter=orthogonalPerimeter;outlineConnect=0;targetShapes=umlLifeline;portConstraint=eastwest;newEdgeStyle={&quot;curved&quot;:0,&quot;rounded&quot;:0};" parent="yDCDBSICSVUORIP6rhff-2" vertex="1">
          <mxGeometry x="13.5" y="102" width="10" height="54" as="geometry" />
        </mxCell>
        <mxCell id="yDCDBSICSVUORIP6rhff-3" value="" style="shape=umlLifeline;perimeter=lifelinePerimeter;whiteSpace=wrap;html=1;container=1;dropTarget=0;collapsible=0;recursiveResize=0;outlineConnect=0;portConstraint=eastwest;newEdgeStyle={&quot;curved&quot;:0,&quot;rounded&quot;:0};participant=umlBoundary;size=54;" parent="1" vertex="1">
          <mxGeometry x="314" y="111" width="61" height="634" as="geometry" />
        </mxCell>
        <mxCell id="yDCDBSICSVUORIP6rhff-12" value="" style="html=1;points=[[0,0,0,0,5],[0,1,0,0,-5],[1,0,0,0,5],[1,1,0,0,-5]];perimeter=orthogonalPerimeter;outlineConnect=0;targetShapes=umlLifeline;portConstraint=eastwest;newEdgeStyle={&quot;curved&quot;:0,&quot;rounded&quot;:0};" parent="yDCDBSICSVUORIP6rhff-3" vertex="1">
          <mxGeometry x="25.5" y="124" width="10" height="137" as="geometry" />
        </mxCell>
        <mxCell id="yDCDBSICSVUORIP6rhff-6" value="" style="shape=umlLifeline;perimeter=lifelinePerimeter;whiteSpace=wrap;html=1;container=1;dropTarget=0;collapsible=0;recursiveResize=0;outlineConnect=0;portConstraint=eastwest;newEdgeStyle={&quot;curved&quot;:0,&quot;rounded&quot;:0};participant=umlControl;size=70;" parent="1" vertex="1">
          <mxGeometry x="564" y="109" width="64" height="640" as="geometry" />
        </mxCell>
        <mxCell id="yDCDBSICSVUORIP6rhff-14" value="" style="html=1;points=[[0,0,0,0,5],[0,1,0,0,-5],[1,0,0,0,5],[1,1,0,0,-5]];perimeter=orthogonalPerimeter;outlineConnect=0;targetShapes=umlLifeline;portConstraint=eastwest;newEdgeStyle={&quot;curved&quot;:0,&quot;rounded&quot;:0};" parent="yDCDBSICSVUORIP6rhff-6" vertex="1">
          <mxGeometry x="27.5" y="152" width="10" height="108" as="geometry" />
        </mxCell>
        <mxCell id="yDCDBSICSVUORIP6rhff-45" value="" style="html=1;points=[[0,0,0,0,5],[0,1,0,0,-5],[1,0,0,0,5],[1,1,0,0,-5]];perimeter=orthogonalPerimeter;outlineConnect=0;targetShapes=umlLifeline;portConstraint=eastwest;newEdgeStyle={&quot;curved&quot;:0,&quot;rounded&quot;:0};" parent="yDCDBSICSVUORIP6rhff-6" vertex="1">
          <mxGeometry x="27.5" y="327" width="10" height="68" as="geometry" />
        </mxCell>
        <mxCell id="yDCDBSICSVUORIP6rhff-50" value="Logar no Sistema &quot;Sucesso&quot;" style="html=1;verticalAlign=bottom;endArrow=open;dashed=1;endSize=8;curved=0;rounded=0;entryX=0.85;entryY=0.988;entryDx=0;entryDy=0;entryPerimeter=0;" parent="yDCDBSICSVUORIP6rhff-6" target="yDCDBSICSVUORIP6rhff-44" edge="1">
          <mxGeometry relative="1" as="geometry">
            <mxPoint x="27" y="394" as="sourcePoint" />
            <mxPoint x="-214" y="386.5" as="targetPoint" />
            <Array as="points" />
          </mxGeometry>
        </mxCell>
        <mxCell id="yDCDBSICSVUORIP6rhff-44" value="" style="html=1;points=[[0,0,0,0,5],[0,1,0,0,-5],[1,0,0,0,5],[1,1,0,0,-5]];perimeter=orthogonalPerimeter;outlineConnect=0;targetShapes=umlLifeline;portConstraint=eastwest;newEdgeStyle={&quot;curved&quot;:0,&quot;rounded&quot;:0};" parent="yDCDBSICSVUORIP6rhff-6" vertex="1">
          <mxGeometry x="-224.5" y="334" width="10.5" height="61" as="geometry" />
        </mxCell>
        <mxCell id="yDCDBSICSVUORIP6rhff-7" value="Data Base" style="shape=umlLifeline;perimeter=lifelinePerimeter;whiteSpace=wrap;html=1;container=1;dropTarget=0;collapsible=0;recursiveResize=0;outlineConnect=0;portConstraint=eastwest;newEdgeStyle={&quot;curved&quot;:0,&quot;rounded&quot;:0};size=57;" parent="1" vertex="1">
          <mxGeometry x="782" y="113" width="97" height="638" as="geometry" />
        </mxCell>
        <mxCell id="yDCDBSICSVUORIP6rhff-15" value="" style="html=1;points=[[0,0,0,0,5],[0,1,0,0,-5],[1,0,0,0,5],[1,1,0,0,-5]];perimeter=orthogonalPerimeter;outlineConnect=0;targetShapes=umlLifeline;portConstraint=eastwest;newEdgeStyle={&quot;curved&quot;:0,&quot;rounded&quot;:0};" parent="yDCDBSICSVUORIP6rhff-7" vertex="1">
          <mxGeometry x="45" y="150" width="10" height="106" as="geometry" />
        </mxCell>
        <mxCell id="yDCDBSICSVUORIP6rhff-8" value="User" style="text;html=1;align=center;verticalAlign=middle;resizable=0;points=[];autosize=1;strokeColor=none;fillColor=none;" parent="1" vertex="1">
          <mxGeometry x="82" y="74" width="43" height="26" as="geometry" />
        </mxCell>
        <mxCell id="yDCDBSICSVUORIP6rhff-9" value="Login Form" style="text;html=1;align=center;verticalAlign=middle;resizable=0;points=[];autosize=1;strokeColor=none;fillColor=none;" parent="1" vertex="1">
          <mxGeometry x="315" y="74" width="79" height="26" as="geometry" />
        </mxCell>
        <mxCell id="yDCDBSICSVUORIP6rhff-10" value="Authentication Controller" style="text;html=1;align=center;verticalAlign=middle;resizable=0;points=[];autosize=1;strokeColor=none;fillColor=none;" parent="1" vertex="1">
          <mxGeometry x="519" y="80" width="149" height="26" as="geometry" />
        </mxCell>
        <mxCell id="yDCDBSICSVUORIP6rhff-16" value="Insere E-mail e Senha&amp;nbsp;" style="html=1;verticalAlign=bottom;endArrow=block;curved=0;rounded=0;" parent="1" edge="1">
          <mxGeometry width="80" relative="1" as="geometry">
            <mxPoint x="107.5" y="237" as="sourcePoint" />
            <mxPoint x="339" y="237" as="targetPoint" />
          </mxGeometry>
        </mxCell>
        <mxCell id="yDCDBSICSVUORIP6rhff-17" value="validarCredenciais(E-mail, Senha)" style="html=1;verticalAlign=bottom;endArrow=block;curved=0;rounded=0;" parent="1" edge="1">
          <mxGeometry width="80" relative="1" as="geometry">
            <mxPoint x="350" y="295" as="sourcePoint" />
            <mxPoint x="591" y="295" as="targetPoint" />
            <mxPoint as="offset" />
            <Array as="points">
              <mxPoint x="473" y="295" />
            </Array>
          </mxGeometry>
        </mxCell>
        <mxCell id="yDCDBSICSVUORIP6rhff-18" value="Valida Credenciais (E-mail, Senha)" style="html=1;verticalAlign=bottom;endArrow=block;curved=0;rounded=0;" parent="1" edge="1">
          <mxGeometry width="80" relative="1" as="geometry">
            <mxPoint x="601" y="312" as="sourcePoint" />
            <mxPoint x="823.5" y="312" as="targetPoint" />
          </mxGeometry>
        </mxCell>
        <mxCell id="yDCDBSICSVUORIP6rhff-19" value="Retorno (True or False)" style="html=1;verticalAlign=bottom;endArrow=open;dashed=1;endSize=8;curved=0;rounded=0;" parent="1" edge="1">
          <mxGeometry relative="1" as="geometry">
            <mxPoint x="825" y="364" as="sourcePoint" />
            <mxPoint x="602" y="364" as="targetPoint" />
          </mxGeometry>
        </mxCell>
        <mxCell id="yDCDBSICSVUORIP6rhff-56" value="&lt;span style=&quot;color: rgb(0, 0, 0); font-family: Helvetica; font-size: 12px; font-style: normal; font-variant-ligatures: normal; font-variant-caps: normal; font-weight: 400; letter-spacing: normal; orphans: 2; text-align: center; text-indent: 0px; text-transform: none; widows: 2; word-spacing: 0px; -webkit-text-stroke-width: 0px; white-space: nowrap; background-color: rgb(251, 251, 251); text-decoration-thickness: initial; text-decoration-style: initial; text-decoration-color: initial; display: inline !important; float: none;&quot;&gt;[ELSE : Credenciais Iválidas]&lt;/span&gt;" style="text;whiteSpace=wrap;html=1;" parent="1" vertex="1">
          <mxGeometry x="165" y="541" width="162" height="26" as="geometry" />
        </mxCell>
        <mxCell id="J81iDQ_qj4UGHNOq4W9H-3" value="Validar Digitação" style="html=1;align=left;spacingLeft=2;endArrow=block;rounded=0;edgeStyle=orthogonalEdgeStyle;curved=0;rounded=0;fontSize=12;startSize=8;endSize=8;" edge="1" parent="1">
          <mxGeometry relative="1" as="geometry">
            <mxPoint x="349.5" y="246" as="sourcePoint" />
            <Array as="points">
              <mxPoint x="379.5" y="276" />
            </Array>
            <mxPoint x="349.5" y="276" as="targetPoint" />
          </mxGeometry>
        </mxCell>
        <mxCell id="J81iDQ_qj4UGHNOq4W9H-7" value="[IF : Credenciais validas]" style="text;html=1;align=center;verticalAlign=middle;resizable=0;points=[];autosize=1;strokeColor=none;fillColor=none;" vertex="1" parent="1">
          <mxGeometry x="175" y="456" width="149" height="26" as="geometry" />
        </mxCell>
        <mxCell id="J81iDQ_qj4UGHNOq4W9H-10" value="ALT" style="shape=umlFrame;whiteSpace=wrap;html=1;pointerEvents=0;" vertex="1" parent="1">
          <mxGeometry x="151" y="408" width="759" height="259" as="geometry" />
        </mxCell>
        <mxCell id="J81iDQ_qj4UGHNOq4W9H-11" value="Mostra a pagina inicial da Dash" style="html=1;align=left;spacingLeft=2;endArrow=block;rounded=0;edgeStyle=orthogonalEdgeStyle;curved=0;rounded=0;fontSize=12;startSize=8;endSize=8;" edge="1" parent="1">
          <mxGeometry relative="1" as="geometry">
            <mxPoint x="350" y="444" as="sourcePoint" />
            <Array as="points">
              <mxPoint x="380" y="474" />
            </Array>
            <mxPoint x="350" y="474" as="targetPoint" />
          </mxGeometry>
        </mxCell>
        <mxCell id="J81iDQ_qj4UGHNOq4W9H-12" value="" style="endArrow=none;dashed=1;html=1;rounded=0;fontSize=12;startSize=8;endSize=8;curved=1;entryX=1.008;entryY=0.513;entryDx=0;entryDy=0;entryPerimeter=0;exitX=0.007;exitY=0.45;exitDx=0;exitDy=0;exitPerimeter=0;" edge="1" parent="1" source="J81iDQ_qj4UGHNOq4W9H-10">
          <mxGeometry width="50" height="50" relative="1" as="geometry">
            <mxPoint x="221.49" y="524" as="sourcePoint" />
            <mxPoint x="910.0020000000002" y="524.6000000000001" as="targetPoint" />
          </mxGeometry>
        </mxCell>
        <mxCell id="J81iDQ_qj4UGHNOq4W9H-13" value="" style="html=1;points=[[0,0,0,0,5],[0,1,0,0,-5],[1,0,0,0,5],[1,1,0,0,-5]];perimeter=orthogonalPerimeter;outlineConnect=0;targetShapes=umlLifeline;portConstraint=eastwest;newEdgeStyle={&quot;curved&quot;:0,&quot;rounded&quot;:0};" vertex="1" parent="1">
          <mxGeometry x="591" y="560" width="10" height="68" as="geometry" />
        </mxCell>
        <mxCell id="J81iDQ_qj4UGHNOq4W9H-14" value="Erro &quot;insucesso&quot;" style="html=1;verticalAlign=bottom;endArrow=open;dashed=1;endSize=8;curved=0;rounded=0;entryX=0.85;entryY=0.988;entryDx=0;entryDy=0;entryPerimeter=0;" edge="1" parent="1" target="J81iDQ_qj4UGHNOq4W9H-15">
          <mxGeometry relative="1" as="geometry">
            <mxPoint x="590.5" y="627" as="sourcePoint" />
            <mxPoint x="349.5" y="619.5" as="targetPoint" />
            <Array as="points" />
          </mxGeometry>
        </mxCell>
        <mxCell id="J81iDQ_qj4UGHNOq4W9H-15" value="" style="html=1;points=[[0,0,0,0,5],[0,1,0,0,-5],[1,0,0,0,5],[1,1,0,0,-5]];perimeter=orthogonalPerimeter;outlineConnect=0;targetShapes=umlLifeline;portConstraint=eastwest;newEdgeStyle={&quot;curved&quot;:0,&quot;rounded&quot;:0};" vertex="1" parent="1">
          <mxGeometry x="339" y="567" width="10.5" height="61" as="geometry" />
        </mxCell>
        <mxCell id="J81iDQ_qj4UGHNOq4W9H-16" value="Mostra mensagem de Erro" style="html=1;align=left;spacingLeft=2;endArrow=block;rounded=0;edgeStyle=orthogonalEdgeStyle;curved=0;rounded=0;fontSize=12;startSize=8;endSize=8;" edge="1" parent="1">
          <mxGeometry relative="1" as="geometry">
            <mxPoint x="349.5" y="568" as="sourcePoint" />
            <Array as="points">
              <mxPoint x="379.5" y="598" />
            </Array>
            <mxPoint x="349.5" y="598" as="targetPoint" />
          </mxGeometry>
        </mxCell>
        <mxCell id="J81iDQ_qj4UGHNOq4W9H-19" value="Retorno Ñ = OK" style="shape=umlFrame;whiteSpace=wrap;html=1;pointerEvents=0;width=105;height=46;" vertex="1" parent="1">
          <mxGeometry x="-22" y="203" width="1006" height="508" as="geometry" />
        </mxCell>
      </root>
    </mxGraphModel>
  </diagram>
</mxfile>
